<?xml version="1.0" encoding="utf-8"?>
<!-- Generator: Adobe Illustrator 21.1.0, SVG Export Plug-In . SVG Version: 6.00 Build 0)  -->
<svg version="1.1" id="global" xmlns="http://www.w3.org/2000/svg" xmlns:xlink="http://www.w3.org/1999/xlink" x="0px" y="0px"
	 viewBox="0 0 1200 1200" enable-background="new 0 0 1200 1200" xml:space="preserve">
<g id="background">
	<rect fill="#333333" width="1200" height="1200"/>
</g>
<g id="rk">
	<g>
		<polygon fill="none" points="1124.3,632 877.3,878.9 369,624.8 585.7,408 324.3,408 100.3,632 0,632 0,1200 1200,1200 1200,632 		
			"/>
		<polygon fill="none" points="297.7,344 740.3,344 477,607.2 609.4,673.4 849,434 909,464 669.7,703.6 864.7,801.1 1097.7,568 
			1200,568 1200,0 0,0 0,568 73.7,568 		"/>
		<polygon fill="#999999" points="324.3,408 585.7,408 369,624.8 877.3,878.9 1124.3,632 1200,632 1200,568 1097.7,568 864.7,801.1 
			669.7,703.6 640.6,732.6 595.4,687.4 609.4,673.4 477,607.2 740.3,344 297.7,344 73.7,568 0,568 0,632 100.3,632 		"/>
		<polygon fill="#999999" points="849,434 609.4,673.4 595.4,687.4 640.6,732.6 669.7,703.6 909,464 		"/>
	</g>
</g>
</svg>
